<svg width="648" height="397" viewBox="0 0 648 397" fill="none" xmlns="http://www.w3.org/2000/svg">
<path d="M585.196 0.0216492C587.459 -0.0846376 588.747 0.167518 590.567 1.52011C591.372 2.03117 591.996 2.16378 592.932 2.31536C595.71 2.83158 597.485 4.73307 599.191 6.8654C599.764 7.51572 600.363 7.98584 601.055 8.5048C604.427 11.3425 605.429 17.3563 605.91 21.5509C606.038 23.5951 606.05 25.6467 606.071 27.6943C606.078 28.2006 606.078 28.2006 606.085 28.7171C606.087 30.3927 606.069 31.744 605.265 33.2625C604.901 33.2625 604.536 33.2625 604.161 33.2625C603.918 33.0196 603.675 32.7766 603.425 32.5262C603.463 32.9533 603.463 32.9533 603.502 33.3891C603.611 35.4748 603.668 36.9326 602.343 38.6236C602.142 38.8443 601.942 39.065 601.735 39.2923C601.13 39.9105 601.13 39.9105 600.848 40.9936C601.091 40.9936 601.334 40.9936 601.584 40.9936C601.705 43.3018 601.827 45.6101 601.952 47.9883C601.466 47.7453 600.98 47.5024 600.479 47.252C600.236 47.252 599.993 47.252 599.743 47.252C598.737 49.2651 599.219 52.2337 599.858 54.3158C600.097 55.1025 600.097 55.1025 600.479 55.7194C600.844 55.8408 601.208 55.9623 601.584 56.0875C601.584 56.3305 601.584 56.5734 601.584 56.8238C601.798 56.9121 602.012 57.0003 602.232 57.0913C603.217 57.6516 603.745 58.2944 604.46 59.1707C605.724 60.6439 606.835 61.5107 608.579 62.346C608.579 62.5889 608.579 62.8319 608.579 63.0822C608.844 63.1126 609.11 63.143 609.384 63.1743C610.419 63.4504 610.419 63.4504 611.202 64.0946C612.156 64.8413 612.865 65.2164 613.963 65.6823C619.151 67.9649 623.954 71.0757 628.458 74.4947C628.734 74.7016 629.009 74.9084 629.293 75.1216C630.191 75.7985 631.086 76.4801 631.979 77.1638C632.4 77.4833 632.4 77.4833 632.83 77.8092C634.944 79.4482 636.608 81.11 637.892 83.4913C638.034 83.749 638.175 84.0066 638.321 84.2721C639.556 86.7627 640.536 89.3755 641.559 91.9586C641.84 92.6662 642.123 93.373 642.416 94.0754C643.145 95.8688 643.578 97.7319 644.033 99.6087C644.575 101.828 645.181 104.027 645.807 106.224C645.901 106.554 645.994 106.884 646.09 107.225C646.527 108.748 647.011 110.206 647.602 111.677C647.648 112.713 647.648 112.713 647.602 113.518C647.116 113.518 646.63 113.518 646.129 113.518C646.173 115.927 646.219 118.336 646.266 120.744C646.282 121.561 646.298 122.378 646.312 123.195C646.389 127.37 646.497 131.527 646.786 135.694C646.919 138.005 646.934 140.314 646.934 142.629C646.935 143.435 646.941 144.24 646.948 145.046C646.967 149.354 646.851 153.303 644.542 157.051C644.208 157.623 643.875 158.195 643.542 158.767C643.276 159.219 643.276 159.219 643.005 159.68C642 161.414 641.053 163.18 640.101 164.943C639.899 165.316 639.697 165.688 639.489 166.072C638.294 168.282 637.126 170.504 635.978 172.738C629.936 184.471 629.936 184.471 625.374 189.107C622.96 191.572 621.281 194.444 619.623 197.455C619.431 197.763 619.238 198.07 619.04 198.388C618.331 200.124 618.39 201.638 618.421 203.493C618.42 204.246 618.418 204.999 618.416 205.752C618.42 206.932 618.427 208.111 618.441 209.29C618.454 210.434 618.45 211.576 618.444 212.72C618.452 213.07 618.461 213.421 618.47 213.781C618.444 216.212 618.444 216.212 617.572 217.362C616.869 218.041 616.869 218.041 616.167 218.61C615.124 219.603 615.114 220.765 615.044 222.144C615.022 222.433 615 222.723 614.978 223.021C614.915 223.948 614.874 224.874 614.837 225.802C614.821 226.086 614.806 226.37 614.79 226.662C614.027 241.727 616.56 258.883 622.547 272.673C623.003 273.83 623.246 274.963 623.48 276.179C623.911 277.958 624.725 279.626 625.703 281.166C626.302 282.22 626.6 283.192 626.917 284.36C627.543 286.518 628.418 288.373 629.536 290.318C630.105 291.777 629.822 292.818 629.305 294.258C627.988 296.576 625.941 298.032 623.847 299.609C623.634 299.77 623.421 299.93 623.202 300.096C622.568 300.536 622.568 300.536 621.327 301.168C620.252 302.101 620.199 302.273 620.034 303.613C619.995 304.274 619.966 304.936 619.945 305.598C619.901 306.328 619.854 307.058 619.804 307.788C619.778 308.168 619.753 308.547 619.726 308.939C619.554 310.888 619.225 312.806 618.887 314.732C618.795 315.256 618.795 315.256 618.701 315.791C618.579 316.484 618.456 317.177 618.333 317.87C618.14 319.006 617.973 320.144 617.807 321.284C617.422 323.81 616.876 326.283 616.287 328.768C616.176 329.24 616.066 329.712 615.953 330.199C615.344 332.784 614.69 335.353 613.983 337.912C611.067 348.48 609.633 358.852 609.554 369.829C609.548 370.457 609.538 371.085 609.524 371.713C609.504 372.636 609.496 373.558 609.49 374.481C609.478 374.901 609.478 374.901 609.465 375.329C609.449 376.219 609.449 376.219 609.683 377.478C610.546 378.365 610.546 378.365 611.524 378.95C612.127 380.125 612.368 381.342 612.628 382.632C612.706 382.917 612.783 383.202 612.863 383.496C613.073 384.854 612.967 385.795 612.201 386.966C611.044 388.475 609.757 389.854 608.434 391.218C607.942 391.731 607.474 392.266 607.011 392.805C604.329 395.846 600.34 396.054 596.499 396.506C596.112 396.552 595.726 396.598 595.327 396.646C589.225 397.338 583.975 397.329 578.759 393.676C578.391 393.308 578.391 393.308 578.23 392.411C578.434 390.748 579.124 389.765 580.014 388.37C580.992 386.779 581.674 385.074 582.381 383.351C582.806 382.328 583.121 381.584 583.913 380.791C583.406 380.834 582.9 380.881 582.394 380.929C582.112 380.955 581.831 380.98 581.54 381.007C580.584 381.132 580.584 381.132 579.658 381.5C578.066 381.997 576.486 382.236 574.839 382.479C574.135 382.588 573.43 382.696 572.726 382.804C571.63 382.971 570.533 383.136 569.436 383.301C565.427 383.905 561.495 384.558 557.585 385.643C555.461 386.143 553.327 386.245 551.148 386.313C551.148 386.556 551.148 386.799 551.148 387.05C548.432 387.708 545.862 387.899 543.072 387.878C542.701 387.881 542.33 387.884 541.948 387.887C535.813 387.871 535.813 387.871 533.408 386.267C532.48 384.796 532.544 383.983 532.741 382.264C533.581 381.423 534.001 381.347 535.134 381.067C536.959 380.551 538.397 379.746 539.99 378.732C540.84 378.214 540.84 378.214 542.175 377.662C544.087 376.812 545.769 375.671 547.052 374.003C548.293 372.507 549.915 371.567 551.516 370.483C552.356 369.898 553.191 369.305 554.024 368.711C554.24 368.558 554.456 368.405 554.678 368.247C556.475 366.961 558.225 365.62 559.952 364.242C561.377 363.12 561.377 363.12 562.192 363.12C562.299 362.908 562.405 362.695 562.515 362.476C562.929 361.648 562.929 361.648 563.317 361.035C563.807 359.824 563.77 358.654 563.763 357.368C563.763 357.094 563.764 356.821 563.765 356.539C563.765 355.96 563.764 355.381 563.761 354.801C563.757 353.93 563.761 353.058 563.766 352.187C563.769 348.336 563.66 344.644 562.192 341.031C562.141 340.442 562.112 339.851 562.1 339.26C561.943 337.159 561.28 335.373 560.509 333.439C559.804 331.65 559.249 329.868 558.764 328.008C557.009 321.42 554.613 315.036 551.921 308.778C551.772 308.431 551.622 308.083 551.469 307.726C551.336 307.421 551.202 307.115 551.065 306.801C550.78 306.058 550.78 306.058 550.78 305.321C550.517 305.29 550.253 305.258 549.982 305.225C547.86 304.926 545.822 304.495 543.785 303.826C543.398 303.7 543.011 303.574 542.612 303.445C540.851 302.254 540.318 300.538 539.923 298.497C539.785 297.429 539.687 296.363 539.598 295.289C539.512 294.405 539.424 293.521 539.334 292.638C539.31 292.396 539.286 292.155 539.261 291.906C538.936 288.751 538.494 285.611 538.064 282.469C537.768 280.293 537.481 278.116 537.192 275.94C536.988 274.404 536.784 272.869 536.57 271.334C535.361 262.577 534.923 253.781 534.443 244.961C534.081 238.299 533.709 231.639 533.198 224.987C533.14 224.225 533.083 223.463 533.029 222.7C532.712 218.294 532.099 214.226 530.9 209.972C530.727 209.229 530.558 208.485 530.394 207.74C529.787 205.305 528.828 203.027 527.866 200.717C527.282 199.286 526.753 197.835 526.215 196.387C525.807 195.314 525.807 195.314 525.384 194.639C524.114 192.464 524.068 190.545 524.095 188.068C524.093 187.653 524.092 187.237 524.09 186.809C524.088 185.44 524.096 184.071 524.104 182.702C524.105 181.742 524.105 180.783 524.105 179.823C524.106 177.811 524.112 175.799 524.122 173.786C524.133 171.481 524.137 169.175 524.137 166.869C524.136 164.632 524.14 162.395 524.146 160.159C524.149 159.217 524.15 158.275 524.151 157.332C524.163 147.508 524.44 138.327 528.714 129.345C530.156 126.281 531.302 123.13 532.281 119.892C532.367 119.622 532.452 119.352 532.541 119.074C532.982 117.609 533.314 116.477 532.741 114.991C532.242 114.392 532.242 114.392 531.613 113.955C531.078 113.557 531.078 113.557 530.532 113.15C530.808 111.401 530.808 111.401 531.636 110.573C532.028 109.719 532.388 108.866 532.741 107.996C532.851 107.75 532.962 107.505 533.076 107.251C534.194 104.676 534.787 102.027 535.341 99.2861C535.505 98.4774 535.674 97.67 535.844 96.8626C536.33 94.5299 536.798 92.1986 537.18 89.8461C537.764 86.2666 538.55 83.4261 540.416 80.3045C541.509 78.4613 542.296 76.475 543.094 74.4902C543.794 72.8263 544.395 71.7763 545.994 70.8133C547.146 70.3862 547.146 70.3862 548.41 70.054C548.866 69.9306 549.322 69.8072 549.792 69.6801C550.62 69.4728 551.451 69.2748 552.286 69.0934C556.712 68.1189 560.452 65.9634 564.137 63.3756C565.921 62.1963 567.613 61.4739 569.693 60.9884C570.278 60.8496 570.278 60.8496 570.875 60.708C571.315 60.6076 571.315 60.6076 571.764 60.5052C572.071 58.3348 572.221 56.208 572.247 54.0167C572.258 53.7149 572.269 53.413 572.28 53.1021C572.301 51.0477 571.939 50.0287 570.66 48.3565C570.194 47.2808 570.194 47.2808 569.831 46.2396C569.708 45.8922 569.585 45.5449 569.458 45.187C569.187 44.3069 569.187 44.3069 569.187 43.5706C568.337 43.5706 567.486 43.5706 566.61 43.5706C566.519 43.2517 566.428 42.9328 566.334 42.6042C565.517 40.3995 564.394 39.1061 562.561 37.6803C562.561 37.4373 562.561 37.1943 562.561 36.944C563.168 36.701 563.775 36.458 564.401 36.2077C564.18 33.4771 563.875 30.7398 563.072 28.1099C561.623 23.0852 562.968 18.0114 564.87 13.3344C565.245 12.3704 565.527 11.3807 565.828 10.3915C566.6 8.31265 567.803 7.31186 569.555 6.01982C570.119 5.56282 570.119 5.56282 570.694 5.09658C575.393 1.29654 579.3 0.517338 585.196 0.0216492Z" fill="#103255"/>
<path d="M306.332 24.0594C306.332 24.3023 306.332 24.5453 306.332 24.7956C307.911 25.1601 309.49 25.5246 311.118 25.9001C311.118 26.1431 311.118 26.386 311.118 26.6364C311.375 26.6648 311.632 26.6933 311.897 26.7227C313.253 27.0827 314.097 27.7242 315.213 28.5691C315.594 28.852 315.974 29.1348 316.367 29.4262C318.268 31.1052 318.716 32.8469 319.274 35.2432C319.603 36.2626 320.028 36.8495 320.689 37.6807C320.962 38.2117 321.222 38.7493 321.472 39.2913C322.41 41.2289 323.552 42.9951 324.759 44.7731C325.843 46.4006 325.843 46.4006 325.843 47.6206C325.6 47.6206 325.357 47.6206 325.107 47.6206C325.214 47.9039 325.321 48.1872 325.431 48.4791C325.963 50.221 326.258 51.9694 326.557 53.764C326.62 54.1407 326.683 54.5173 326.748 54.9054C326.876 55.6742 327.004 56.4432 327.131 57.2122C327.294 58.1682 327.471 59.1196 327.657 60.0714C328.581 64.995 328.535 69.867 328.42 74.8633C328.177 74.8633 327.934 74.8633 327.684 74.8633C328.049 76.5034 328.049 76.5034 328.42 78.1766C328.914 78.1909 328.914 78.1909 329.418 78.2054C332.316 78.3413 334.672 78.6824 337.256 80.0174C337.525 80.1545 337.794 80.2916 338.071 80.433C340.305 81.6935 341.479 83.2857 342.594 85.5625C343.71 87.7477 345.273 89.1706 347.219 90.6245C347.427 90.7811 347.634 90.9376 347.848 91.0989C348.488 91.58 349.13 92.0574 349.773 92.5343C350.532 93.1016 351.292 93.6691 352.051 94.2369C352.412 94.507 352.773 94.777 353.145 95.0552C354.747 96.2691 356.309 97.5294 357.872 98.7927C358.439 99.2455 359.007 99.698 359.575 100.15C360.234 100.679 360.894 101.209 361.553 101.738C361.88 101.998 361.88 101.998 362.213 102.263C365.31 104.732 368.311 107.257 371.193 109.975C372.018 110.744 372.854 111.469 373.725 112.184C377.008 115.035 379.721 118.555 381.801 122.354C382.198 123.015 382.597 123.675 382.998 124.333C384.383 126.618 385.054 128.114 384.747 130.821C384.446 131.913 384.018 132.921 383.55 133.951C383.44 134.206 383.329 134.462 383.215 134.726C382.988 135.247 382.758 135.767 382.525 136.286C382.286 136.82 382.054 137.358 381.828 137.898C380.952 139.972 379.869 141.802 378.603 143.66C378.408 143.949 378.213 144.238 378.011 144.536C374.295 149.972 369.332 156.585 363.026 159.168C362.662 159.168 362.297 159.168 361.922 159.168C361.411 158.605 361.411 158.605 360.932 157.88C360.771 157.641 360.61 157.402 360.445 157.155C360.325 156.969 360.205 156.783 360.081 156.591C358.486 157.126 357.301 157.987 356.008 159.03C354.14 160.502 352.231 161.86 350.239 163.162C348.774 164.128 347.329 165.121 345.884 166.117C345.385 166.461 344.886 166.806 344.387 167.15C344.174 167.297 343.962 167.444 343.742 167.595C343.179 167.982 342.61 168.361 342.042 168.74C342.461 171.704 344.622 173.906 346.598 176.034C348.159 177.727 349.446 179.524 350.722 181.438C351.356 182.378 352.03 183.272 352.735 184.159C352.923 184.4 353.112 184.641 353.306 184.889C353.672 185.356 354.045 185.817 354.424 186.273C355.36 187.479 355.796 188.246 355.624 189.796C354.418 194.928 350.842 199.235 347.582 203.264C346.065 205.162 344.792 207.17 343.54 209.251C342.778 210.341 342.778 210.341 341.822 210.953C340.365 212.369 340.316 214.188 339.994 216.139C339.841 216.978 339.686 217.817 339.531 218.655C339.457 219.063 339.384 219.47 339.308 219.889C338.606 223.64 337.535 227.279 336.361 230.905C335.252 234.353 334.262 237.838 333.265 241.32C332.627 243.542 331.986 245.754 331.208 247.931C330.846 249.129 330.742 250.329 330.629 251.573C330.386 251.573 330.143 251.573 329.893 251.573C329.847 251.907 329.802 252.241 329.755 252.585C329.47 254.585 329.125 256.576 328.789 258.568C328.546 258.568 328.303 258.568 328.052 258.568C328.05 258.889 328.05 258.889 328.049 259.216C328.018 264.506 327.984 269.795 327.946 275.085C327.928 277.643 327.911 280.201 327.897 282.759C327.787 302.448 327.787 302.448 327.348 311.132C327.334 311.417 327.32 311.702 327.305 311.996C327.043 317.129 326.687 322.349 325.636 327.388C325.579 327.671 325.521 327.955 325.462 328.247C324.507 332.758 323.3 337.217 322.135 341.678C322.036 342.057 322.036 342.057 321.935 342.444C321.669 343.457 321.389 344.455 321.058 345.45C320.304 351.412 319.625 358.75 323.215 363.897C323.971 365.15 324.177 366.473 324.371 367.907C324.443 368.289 324.443 368.289 324.516 368.68C324.601 369.425 324.601 369.425 324.371 370.852C323.276 372.138 321.771 373.695 320.01 373.861C319.74 373.87 319.47 373.878 319.191 373.887C318.891 373.9 318.591 373.912 318.282 373.924C317.656 373.946 317.03 373.967 316.404 373.987C314.413 374.07 312.672 374.382 310.749 374.901C309.007 375.152 307.852 375.191 306.378 374.165C304.567 371.608 304.334 369.441 304.56 366.411C304.576 366.095 304.593 365.778 304.61 365.452C304.751 363.167 305.241 361.24 305.964 359.071C305.999 358.07 306.015 357.081 306.01 356.08C306.011 355.807 306.012 355.534 306.014 355.253C306.136 353.924 306.136 353.924 305.595 352.813C305.541 351.92 305.509 351.036 305.492 350.142C305.482 349.737 305.482 349.737 305.471 349.323C305.45 348.454 305.43 347.584 305.411 346.715C305.392 345.855 305.373 344.995 305.351 344.135C305.338 343.599 305.326 343.064 305.316 342.528C305.273 340.78 305.091 339.085 304.859 337.35C304.81 336.5 304.779 335.648 304.767 334.797C304.753 334.176 304.753 334.176 304.738 333.544C304.842 332.393 304.998 331.773 305.41 330.737C306.204 328.512 306.115 326.235 306.087 323.903C306.079 323.14 306.08 322.377 306.082 321.614C306.076 318.658 305.831 315.82 305.4 312.89C305.137 310.9 305.073 308.915 305.02 306.91C304.954 304.673 304.877 302.448 304.672 300.22C304.527 298.589 304.456 296.971 304.426 295.335C304.418 294.885 304.409 294.436 304.4 293.973C304.384 293.055 304.372 292.137 304.365 291.218C304.298 288.248 303.772 285.966 302.65 283.233C301.705 280.19 301.076 277.044 300.601 273.897C300.46 273.04 300.27 272.224 300.05 271.384C299.434 268.772 299.454 266.024 299.337 263.353C299.094 263.353 298.851 263.353 298.601 263.353C298.586 263.592 298.572 263.83 298.557 264.076C298.388 266.379 298.004 268.544 297.471 270.788C295.592 278.785 295.226 286.915 294.824 295.095C294.808 295.409 294.792 295.723 294.776 296.046C294.747 296.64 294.719 297.233 294.692 297.827C294.632 299.049 294.542 300.232 294.367 301.445C294.146 303.006 294.067 304.551 293.999 306.124C293.968 306.769 293.938 307.413 293.907 308.057C293.86 309.065 293.814 310.074 293.769 311.082C293.724 312.06 293.678 313.038 293.631 314.016C293.618 314.321 293.605 314.625 293.591 314.938C293.488 317.061 293.488 317.061 293.079 317.471C292.999 318.145 292.942 318.822 292.894 319.5C292.864 319.921 292.834 320.342 292.803 320.775C292.773 321.226 292.742 321.677 292.71 322.142C292.677 322.599 292.644 323.056 292.61 323.526C292.414 326.247 292.414 326.247 292.265 328.971C292.142 331.413 291.754 333.684 291.215 336.062C289.989 341.431 289.989 341.431 291.399 346.6C291.565 346.844 291.732 347.088 291.904 347.339C292.918 348.929 292.799 350.619 292.71 352.444C292.467 352.687 292.224 352.93 291.974 353.181C291.82 354.161 291.82 354.161 291.78 355.316C291.755 355.756 291.73 356.197 291.704 356.65C291.667 357.359 291.667 357.359 291.629 358.082C291.421 361.495 291.179 364.887 290.709 368.275C290.668 368.586 290.628 368.898 290.586 369.218C290.347 370.839 290.073 372.111 289.029 373.429C285.434 374.867 279.983 375.303 276.305 374.119C274.452 373.108 273.629 371.865 272.462 370.115C271.985 366.57 273.126 364.401 275.178 361.625C276.073 360.451 276.975 359.32 277.985 358.243C278.97 356.888 279.003 355.942 279.089 354.285C278.603 354.285 278.117 354.285 277.616 354.285C277.585 353.876 277.553 353.467 277.52 353.046C277.225 349.766 276.769 347.204 275.039 344.345C272.053 338.631 271.89 332.604 271.602 326.283C271.403 321.962 271.062 317.469 269.655 313.352C267.949 308.118 268.741 301.692 268.765 296.271C268.771 294.692 268.775 293.113 268.778 291.534C268.787 287.048 268.8 282.563 268.816 278.078C268.825 275.59 268.832 273.102 268.835 270.614C268.838 269.049 268.843 267.483 268.852 265.918C268.857 264.711 268.857 263.505 268.859 262.298C268.864 261.66 268.864 261.66 268.869 261.008C268.866 258.604 268.662 256.34 268.215 253.977C267.938 252.46 267.881 250.94 267.803 249.403C267.706 248.229 267.706 248.229 267.32 247.013C266.846 245.351 266.672 243.698 266.494 241.987C266.309 240.327 265.931 238.816 265.468 237.215C265.328 236.32 265.206 235.423 265.1 234.523C264.857 232.579 264.559 230.677 264.13 228.767C263.995 228.012 263.995 228.012 263.995 226.539C263.562 226.562 263.562 226.562 263.121 226.585C262.154 226.539 262.154 226.539 261.418 225.803C260.685 225.625 260.685 225.625 259.836 225.538C254.858 224.84 251.009 223.729 247.755 219.681C246.077 217.057 245.455 214.434 245.496 211.353C245.498 211.079 245.501 210.804 245.503 210.522C245.598 205.455 245.598 205.455 246.677 203.416C248.035 200.806 247.994 198.398 247.935 195.5C247.929 195.009 247.924 194.518 247.919 194.027C248.056 187.099 248.056 187.099 246.324 180.521C246.089 180.308 245.853 180.096 245.611 179.877C242.96 176.984 243.344 172.176 243.287 168.51C243.275 168.079 243.275 168.079 243.263 167.64C243.251 165.433 243.601 163.379 244.035 161.219C244.61 158.285 244.913 155.329 245.227 152.358C247.846 127.717 247.846 127.717 250.369 116.694C251.401 112.149 251.911 107.647 252.291 103.008C252.59 99.4309 252.921 96.2101 254.423 92.9024C254.546 92.6118 254.668 92.3212 254.794 92.0218C255.151 91.1825 255.52 90.3509 255.896 89.5201C256.017 89.247 256.139 88.9739 256.264 88.6925C256.626 87.884 256.996 87.0794 257.369 86.2758C257.485 86.0191 257.602 85.7624 257.723 85.4979C258.532 83.7896 259.459 82.4755 260.705 81.0528C261.603 80.0226 262.429 79.0732 263.119 77.8933C263.807 76.7807 264.682 76.5449 265.836 75.9678C266.547 74.9863 266.925 74.1721 267.308 73.0226C266.094 73.0226 264.879 73.0226 263.627 73.0226C263.059 71.8857 263.177 70.9715 263.259 69.7093C263.51 69.0045 263.763 68.3 264.048 67.6083C264.417 66.6188 264.667 65.6276 264.915 64.6013C265.01 64.2226 265.104 63.8439 265.202 63.4537C265.365 62.7722 265.518 62.0879 265.653 61.4002C266.171 59.1482 267.203 57.7892 268.735 56.0772C271.204 53.2609 273.019 49.8645 274.671 46.5162C274.322 46.7592 273.973 47.0021 273.613 47.2525C272.462 47.9888 272.462 47.9888 271.726 47.9888C272.286 46.4518 273.056 45.0861 273.889 43.6861C274.753 42.2165 275.516 40.8254 276.052 39.1993C277.035 36.5093 279.041 34.3078 280.802 32.0878C281.36 31.372 281.36 31.372 281.912 30.2934C283.258 28.6007 285.052 27.7665 286.935 26.7514C287.499 26.4378 287.499 26.4378 288.073 26.1179C289.953 25.0816 291.819 24.1141 293.815 23.3231C294.248 23.1501 294.248 23.1501 294.691 22.9736C298.807 21.5817 302.646 21.6812 306.332 24.0594Z" fill="#103255"/>
<path d="M178.954 13.75C178.954 13.993 178.954 14.236 178.954 14.4863C179.267 14.5822 179.581 14.6781 179.904 14.7768C181.216 15.2417 182.391 15.821 183.624 16.4651C185.239 17.2996 186.818 18.0097 188.548 18.5819C190.163 19.1343 191.105 19.7705 192.207 21.1129C192.394 21.2824 192.581 21.452 192.774 21.6266C195.781 24.933 195.467 32.5689 195.504 36.7941C195.52 38.0026 195.553 39.2093 195.591 40.4172C195.623 41.5529 195.645 42.6886 195.664 43.8246C195.676 44.387 195.69 44.9493 195.708 45.5115C195.845 49.9668 195.845 49.9668 195.06 51.4119C193.879 52.6544 192.769 52.9865 191.102 53.1415C190.54 54.2662 190.646 55.4521 190.618 56.6878C190.606 57.103 190.606 57.103 190.595 57.5265C190.571 58.4118 190.549 59.297 190.527 60.1823C190.511 60.782 190.495 61.3816 190.479 61.9813C190.44 63.4524 190.402 64.9235 190.366 66.3947C190.659 66.3731 190.952 66.3515 191.253 66.3292C194.833 66.1747 194.833 66.1747 196.052 67.19C196.378 67.5426 196.703 67.8952 197.039 68.2585C197.404 68.6335 197.771 69.0069 198.14 69.3787C198.406 69.653 198.406 69.653 198.678 69.9329C199.929 71.1548 201.421 72.0745 202.883 73.0213C203.14 73.195 203.397 73.3687 203.662 73.5477C204.899 74.3605 206.061 74.9775 207.462 75.4603C207.895 75.6273 208.327 75.7944 208.773 75.9665C208.895 76.331 209.016 76.6954 209.142 77.0709C209.872 77.3323 210.61 77.5744 211.35 77.8072C212.238 78.2791 213.093 78.7582 213.95 79.2798C214.191 79.4261 214.432 79.5724 214.68 79.7231C217.144 81.2479 219.436 82.9453 221.658 84.802C221.882 84.9862 222.106 85.1705 222.337 85.3603C226.173 88.5558 228.634 91.6186 229.107 96.7846C229.127 97.1123 229.146 97.44 229.167 97.7776C229.416 101.521 229.682 104.998 230.858 108.573C231.539 110.882 231.835 113.267 232.196 115.644C232.338 116.482 232.524 117.303 232.711 118.132C233.193 120.496 233.282 122.885 233.399 125.287C233.467 126.68 233.545 128.072 233.622 129.464C233.644 129.877 233.644 129.877 233.668 130.299C233.799 132.64 233.984 134.974 234.198 137.309C234.245 137.82 234.245 137.82 234.292 138.342C234.35 138.982 234.408 139.623 234.466 140.263C235.235 148.806 234.992 157.435 234.759 166C234.738 166.871 234.722 167.742 234.712 168.613C234.696 169.902 234.662 171.19 234.624 172.479C234.623 172.864 234.622 173.249 234.621 173.645C234.499 176.726 233.295 178.31 231.23 180.52C230.674 181.22 230.15 181.938 229.62 182.659C229.262 183.141 229.262 183.141 228.898 183.633C227.9 185.158 227.473 186.539 227.297 188.344C226.689 193.57 225.568 199.435 221.658 203.345C221.548 204.006 221.459 204.671 221.38 205.337C221.329 205.764 221.277 206.191 221.224 206.631C221.169 207.098 221.115 207.565 221.059 208.047C221.002 208.528 220.945 209.01 220.887 209.506C220.767 210.531 220.648 211.557 220.53 212.583C220.41 213.622 220.287 214.661 220.162 215.699C218.979 225.514 218.979 225.514 219.367 235.369C220.112 242.062 220.166 250.811 217.908 257.163C216.257 262.043 217.366 268.022 218.261 273C218.85 276.391 219.102 279.818 219.384 283.245C219.425 283.728 219.465 284.21 219.507 284.707C219.529 284.963 219.55 285.218 219.572 285.481C219.704 286.978 219.872 288.464 220.076 289.952C221.008 296.824 221.271 303.685 221.51 310.608C221.555 311.876 221.603 313.145 221.652 314.413C221.711 315.957 221.767 317.5 221.824 319.044C221.834 319.326 221.845 319.609 221.856 319.899C221.926 321.789 221.984 323.678 222.027 325.569C222.037 326.008 222.037 326.008 222.047 326.457C222.065 327.352 222.076 328.248 222.085 329.143C222.093 329.55 222.093 329.55 222.102 329.965C222.112 332.045 221.624 333.673 220.888 335.592C219.969 338.404 220.509 341.04 221.29 343.815C221.925 346.086 222.178 348.22 222.188 350.579C222.191 350.862 222.195 351.145 222.198 351.437C222.171 353.278 221.787 354.766 221.167 356.494C220.699 357.901 220.751 358.717 221.395 360.045C223.4 363.12 225.527 365.321 228.435 367.531C235.501 373.022 235.501 373.022 237.489 376.004C237.722 378.256 237.456 380.433 236.016 382.263C233.917 383.451 231.858 383.627 229.482 383.804C229.141 383.835 228.8 383.865 228.449 383.896C223.838 384.278 219.915 384.566 216.136 381.527C215.813 381.072 215.5 380.611 215.193 380.146C212.752 376.721 207.994 374.663 203.929 373.964C203.584 373.908 203.239 373.853 202.883 373.796C202.842 373.469 202.802 373.143 202.76 372.806C202.606 371.578 202.45 370.35 202.294 369.122C202.227 368.594 202.161 368.065 202.095 367.537C201.655 363.948 201.655 363.948 201.008 360.393C200.701 358.955 200.576 357.563 200.497 356.096C200.242 351.574 199.225 347.362 198.003 343.021C196.692 338.266 196.417 334.029 198.498 329.477C201.013 323.912 198.969 317.387 197.364 311.775C196.114 307.292 195.81 302.818 195.497 298.188C195.416 297.005 195.334 295.822 195.246 294.639C195.192 293.91 195.142 293.18 195.096 292.451C194.944 290.393 194.579 288.57 193.908 286.617C193.679 285.809 193.679 285.809 193.679 284.336C193.436 284.336 193.193 284.336 192.943 284.336C192.903 284.101 192.862 283.865 192.821 283.622C192.763 283.303 192.704 282.985 192.644 282.657C192.589 282.345 192.533 282.033 192.476 281.712C192.225 280.6 192.225 280.6 191.65 279.405C191.088 278.042 190.908 276.914 190.734 275.455C189.989 270.581 187.107 266.161 184.438 262.098C184.108 261.511 184.108 261.511 184.108 260.775C183.865 260.775 183.622 260.775 183.371 260.775C182.955 259.319 182.542 257.861 182.129 256.403C182.012 255.995 181.895 255.587 181.775 255.167C181.173 253.034 180.632 250.915 180.221 248.737C179.963 247.394 179.641 246.067 179.322 244.738C179.193 244.197 179.065 243.656 178.936 243.116C178.876 242.861 178.815 242.606 178.753 242.343C178.438 241.005 178.142 239.662 177.849 238.318C176.083 238.668 176.083 238.668 174.674 239.696C174.107 240.626 173.83 241.454 173.548 242.506C173.443 242.895 173.338 243.285 173.229 243.686C173.121 244.101 173.014 244.517 172.902 244.945C172.788 245.373 172.674 245.802 172.556 246.243C171.885 248.811 171.323 251.376 170.854 253.987C170.269 257.194 169.187 260.005 167.865 262.972C167.336 264.194 166.874 265.439 166.414 266.688C166.325 266.929 166.236 267.169 166.144 267.416C165.964 267.901 165.785 268.386 165.606 268.871C165.134 270.146 164.658 271.42 164.182 272.694C164.043 273.067 164.043 273.067 163.902 273.448C163.414 274.754 162.895 276.039 162.341 277.319C161.598 279.147 161.184 281.042 160.757 282.963C160.225 285.331 159.537 287.628 158.796 289.939C157.237 295.482 156.779 301.349 156.106 307.046C155.918 308.62 155.729 310.194 155.541 311.767C155.496 312.141 155.451 312.515 155.405 312.9C155.162 314.925 154.894 316.943 154.593 318.961C154.091 322.375 154.196 325.72 154.472 329.158C154.91 335.059 154.499 340.645 153.734 346.494C153.331 349.595 153 352.674 152.969 355.805C152.929 357.575 152.681 360.309 151.343 361.647C151.31 362.521 151.3 363.385 151.307 364.26C151.307 364.521 151.308 364.782 151.308 365.051C151.31 365.887 151.315 366.724 151.32 367.56C151.322 368.126 151.323 368.692 151.325 369.258C151.329 370.648 151.335 372.038 151.343 373.427C147.903 375.475 144.773 376.113 140.763 376.223C138.239 376.537 136.712 377.971 134.914 379.617C131.4 382.691 128.402 384.515 123.577 384.25C121.582 384.093 119.596 383.871 117.612 383.62C117.094 383.556 117.094 383.556 116.567 383.49C114.73 383.229 113.161 382.939 111.583 381.895C110.725 379.456 111.572 377.618 112.496 375.287C113.956 372.356 116.505 370.207 119.544 369.033C121.484 368.23 122.458 366.951 123.732 365.328C124.424 364.487 125.125 363.654 125.826 362.82C125.997 362.613 126.167 362.406 126.343 362.192C127.23 361.129 128.072 360.172 129.254 359.438C129.497 359.438 129.74 359.438 129.99 359.438C129.982 359.105 129.982 359.105 129.973 358.766C129.805 351.313 129.805 351.313 130.543 347.68C131.435 343.218 131.46 338.457 130.909 333.943C130.707 332.195 130.673 330.471 130.678 328.712C130.677 328.391 130.677 328.071 130.677 327.74C130.676 327.066 130.677 326.393 130.679 325.719C130.681 324.699 130.679 323.68 130.676 322.661C130.677 322.001 130.677 321.342 130.678 320.682C130.677 320.383 130.676 320.084 130.676 319.776C130.682 318.214 130.755 316.681 130.909 315.125C131.119 312.978 131.157 310.847 131.172 308.691C131.183 307.867 131.193 307.043 131.204 306.219C131.219 304.94 131.233 303.661 131.243 302.381C131.253 301.133 131.27 299.885 131.288 298.637C131.289 298.259 131.29 297.882 131.291 297.494C131.36 293.407 132.485 290.087 134.455 286.556C136.079 283.507 136.355 280.329 136.388 276.92C136.395 276.577 136.401 276.234 136.407 275.881C136.427 274.796 136.442 273.71 136.456 272.625C136.472 271.543 136.49 270.462 136.509 269.38C136.52 268.712 136.53 268.043 136.538 267.374C136.566 265.611 136.656 263.867 136.803 262.11C136.994 259.755 137.045 257.416 137.047 255.054C137.048 254.639 137.049 254.223 137.051 253.795C137.053 252.927 137.053 252.059 137.053 251.191C137.054 249.859 137.061 248.527 137.068 247.195C137.069 246.348 137.07 245.501 137.07 244.654C137.074 244.057 137.074 244.057 137.078 243.448C137.076 242.897 137.076 242.897 137.075 242.334C137.075 242.011 137.076 241.688 137.076 241.355C137.038 240.423 137.038 240.423 136.249 239.423C134.372 234.134 134.49 228.669 134.385 223.127C134.36 221.936 134.327 220.746 134.293 219.556C134.289 219.197 134.285 218.838 134.281 218.468C134.212 216.066 133.69 214.296 132.567 212.18C131.979 211.057 131.719 210.247 131.624 208.976C131.597 208.645 131.569 208.314 131.541 207.974C131.515 207.631 131.489 207.287 131.463 206.934C131.148 202.62 131.148 202.62 129.612 198.628C128.669 196.835 128.511 195.03 128.311 193.036C128.075 190.853 127.81 188.701 127.371 186.547C126.665 183.069 126.417 179.643 126.263 176.102C126.223 175.253 126.181 174.403 126.139 173.554C126.113 173.033 126.089 172.512 126.066 171.991C126.011 170.803 125.914 169.644 125.754 168.465C125.562 166.963 125.523 165.475 125.532 163.961C125.532 163.683 125.532 163.405 125.532 163.118C125.533 162.202 125.537 161.285 125.541 160.368C125.543 159.714 125.544 159.06 125.545 158.406C125.551 156.328 125.561 154.25 125.573 152.172C125.575 151.667 125.575 151.667 125.578 151.151C125.604 146.753 125.642 142.356 125.69 137.959C125.704 136.577 125.717 135.195 125.728 133.813C125.843 119.548 125.843 119.548 126.588 113.538C126.735 112.288 126.827 111.034 126.926 109.778C127.004 108.877 127.082 107.976 127.16 107.075C127.194 106.623 127.228 106.171 127.263 105.706C127.703 100.854 129.554 96.8651 131.808 92.602C132.084 92.0657 132.084 92.0657 132.365 91.5184C135.481 85.5728 139.667 82.3626 145.374 79.0574C147.404 77.8657 149.065 76.5906 150.752 74.9426C152.697 73.2857 154.992 72.1155 157.215 70.8711C157.909 70.4787 158.594 70.0758 159.277 69.6649C159.658 69.4362 160.039 69.2074 160.431 68.9717C160.923 68.6756 160.923 68.6756 161.425 68.3735C162.457 67.8305 163.482 67.4703 164.596 67.131C164.86 63.3625 164.86 63.3625 163.253 60.0788C162.719 59.3512 162.411 58.6431 162.065 57.8124C161.312 56.2386 160.324 55.9572 158.706 55.3504C157.338 53.9455 156.497 52.5494 156.497 50.5645C156.254 50.5645 156.011 50.5645 155.761 50.5645C155.761 49.1067 155.761 47.6488 155.761 46.1468C156.125 46.1468 156.489 46.1468 156.865 46.1468C156.79 45.8025 156.79 45.8025 156.714 45.4513C156.564 44.7666 156.415 44.0819 156.267 43.3972C156.097 42.6196 155.928 41.8421 155.758 41.0647C155.394 39.3983 155.031 37.7323 154.695 36.0602C154.255 33.8929 153.807 31.9307 152.815 29.9484C152.054 28.4258 152.228 26.6011 152.725 25.0087C153.786 22.5238 155.234 20.7826 157.325 19.0651C157.654 18.7913 157.982 18.5175 158.32 18.2354C160.588 16.61 162.923 15.7117 165.608 15.0155C165.897 14.9386 166.186 14.8616 166.484 14.7823C167.061 14.6293 167.638 14.4776 168.216 14.3274C168.916 14.1439 169.613 13.9506 170.309 13.7558C173.355 12.9269 175.959 12.5216 178.954 13.75Z" fill="#103255"/>
<path d="M55.86 12.8544C56.3749 13.0362 56.8854 13.2312 57.3901 13.4397C58.3885 13.8214 59.3887 14.0147 60.4345 14.2335C62.9369 14.8567 64.6811 15.7906 66.1709 17.9351C66.5488 18.5645 66.9147 19.2013 67.2682 19.8448C67.7184 20.6455 68.1998 21.3348 68.7638 22.0566C72.1563 26.8061 70.7339 33.3687 69.9832 38.7841C70.4274 38.955 70.4274 38.955 70.8806 39.1293C71.824 39.5204 71.824 39.5204 72.1921 39.8886C72.2759 40.9926 72.2264 42.096 72.1921 43.2019C72.1902 43.4662 72.1883 43.7305 72.1864 44.0029C72.0609 46.4531 71.2617 49.0953 69.6151 50.9329C67.975 51.1151 67.975 51.1151 66.3018 51.3011C65.9373 54.9457 65.9373 54.9457 65.5655 58.6639C66.1729 58.6639 66.7804 58.6639 67.4062 58.6639C68.1914 59.4851 68.1914 59.4851 68.9248 60.5737C69.1687 60.9282 69.4127 61.2827 69.664 61.6479C70.0996 62.3233 70.5158 63.012 70.9036 63.7159C71.9352 65.2821 73.3569 65.6294 75.1373 66.0268C77.0798 66.2229 79.0312 66.261 80.9816 66.3231C87.058 66.5246 94.465 68.1054 99.1343 72.2652C99.7917 72.9862 100.356 73.6884 100.907 74.4942C101.051 74.6934 101.195 74.8927 101.344 75.098C102.737 77.1408 103.346 79.193 103.922 81.581C104.012 81.9345 104.103 82.2881 104.197 82.6523C105.244 86.8252 105.801 90.9657 106.074 95.2555C106.105 95.7089 106.136 96.1623 106.168 96.6295C106.265 98.0634 106.359 99.4974 106.453 100.932C106.548 102.372 106.644 103.813 106.741 105.253C106.802 106.146 106.861 107.038 106.919 107.931C107.052 109.934 107.224 111.903 107.534 113.886C108.511 124.364 107.788 134.937 107.1 145.407C107.005 146.86 106.916 148.313 106.831 149.767C106.321 158.575 105.442 167.044 103.396 175.636C103.076 177.011 102.803 178.391 102.548 179.78C102.071 181.886 100.838 183.794 99.803 185.674C99.676 185.91 99.5491 186.147 99.4183 186.39C99.026 187.115 98.6227 187.833 98.2153 188.55C98.0983 188.766 97.9813 188.981 97.8608 189.203C96.9633 190.731 95.9696 191.606 94.5583 192.683C93.415 193.681 92.8793 194.232 92.4993 195.713C92.4185 197.116 92.4492 198.468 92.5321 199.87C92.5496 200.371 92.5658 200.872 92.5807 201.373C92.6291 202.769 92.7134 204.16 92.8082 205.554C92.8276 205.859 92.847 206.165 92.867 206.48C92.9884 208.155 93.2439 209.794 93.5445 211.444C93.6137 211.836 93.6828 212.228 93.7541 212.632C94.5175 217.617 94.5175 217.617 95.7534 222.488C95.7892 223.44 95.8049 224.381 95.8023 225.333C95.8028 225.764 95.8028 225.764 95.8033 226.203C95.8036 226.816 95.8029 227.43 95.8014 228.043C95.7995 228.945 95.8013 229.848 95.8037 230.75C95.805 232.319 95.7912 233.887 95.7683 235.455C95.7581 236.151 95.7499 236.848 95.7434 237.544C95.6698 243.789 94.8114 249.708 93.6135 255.828C93.3681 257.115 93.1246 258.401 92.8811 259.687C92.7213 260.531 92.561 261.375 92.4003 262.219C91.8617 265.055 91.3466 267.895 90.8625 270.741C90.8016 271.092 90.7406 271.442 90.6778 271.804C89.7441 277.393 89.9639 282.015 91.8533 287.351C92.7833 290.026 93.2555 292.811 93.7509 295.594C93.8618 296.205 93.9796 296.816 94.1032 297.425C94.6437 300.156 94.8555 302.866 95.0171 305.643C95.2268 309.252 95.2268 309.252 95.5673 312.85C96.0192 316.853 96.1924 320.827 96.2222 324.854C96.2243 325.113 96.2264 325.372 96.2285 325.639C96.2474 328.062 96.259 330.484 96.2617 332.906C96.2636 334.247 96.2725 335.588 96.2858 336.929C96.2894 337.433 96.2902 337.938 96.2883 338.443C96.1972 342.08 96.1972 342.08 97.9622 345.081C98.5955 345.675 99.24 346.258 99.895 346.829C101.149 348.061 101.897 348.809 101.92 350.603C101.819 351.51 101.819 351.51 101.644 352.443C101.593 352.786 101.543 353.128 101.491 353.48C101.339 354.386 101.193 355.252 100.907 356.125C100.664 356.246 100.421 356.368 100.171 356.493C100.743 358.545 101.412 360.079 102.633 361.831C103.864 363.702 104.283 364.965 103.853 367.169C103.54 368.418 103.174 369.636 102.748 370.851C102.505 370.851 102.262 370.851 102.012 370.851C101.914 371.069 101.816 371.287 101.715 371.512C101.267 372.34 100.811 372.873 100.141 373.53C99.9191 373.749 99.6972 373.969 99.4686 374.195C99.2373 374.42 99.0059 374.645 98.7676 374.877C98.5405 375.101 98.3134 375.325 98.0794 375.555C97.6335 375.995 97.1868 376.433 96.7392 376.871C96.1964 377.404 95.6601 377.943 95.1249 378.484C92.1622 381.411 87.6732 385.011 83.3055 385.047C82.5459 384.981 81.7867 384.912 81.0276 384.84C80.471 384.843 79.9144 384.851 79.358 384.863C74.9338 384.899 74.9338 384.899 73.4993 383.749C72.04 381.569 71.7649 379.55 71.7779 376.971C71.7765 376.693 71.7751 376.415 71.7736 376.128C71.7761 374.688 71.8391 373.361 72.1921 371.955C65.7343 371.811 60.8331 373.259 54.8321 375.575C49.0936 377.767 41.7878 378.821 35.8838 376.672C34.1037 375.836 32.2399 374.883 31.328 373.06C31.2404 371.482 31.2081 370.356 32.0643 369.01C32.664 368.585 32.664 368.585 33.3759 368.245C33.6371 368.115 33.8983 367.986 34.1674 367.852C34.5842 367.651 34.5842 367.651 35.0095 367.445C37.2681 366.305 39.2385 365.112 41.1659 363.455C42.3338 362.475 43.5927 361.65 44.866 360.814C47.8892 358.454 49.4048 353.993 49.9395 350.295C49.9911 347.741 49.5225 345.452 48.8768 342.994C48.4525 340.878 48.5439 338.761 48.6308 336.613C48.8738 336.613 49.1168 336.613 49.3671 336.613C50.2833 329.84 50.9309 323.845 48.1904 317.463C44.6325 308.689 43.8069 298.491 43.0181 289.155C42.8405 287.055 42.5781 285.003 42.1883 282.933C42.0924 282.409 41.9965 281.885 41.9007 281.361C41.7403 280.487 41.5798 279.613 41.419 278.738C41.2779 277.778 41.2303 276.884 41.2449 275.915C41.2483 275.628 41.2516 275.34 41.255 275.044C41.2593 274.83 41.2636 274.617 41.268 274.397C41.025 274.397 40.782 274.397 40.5317 274.397C40.4467 274.165 40.3618 273.934 40.2743 273.695C39.6757 272.124 39.0782 270.665 38.1387 269.266C37.0018 267.539 36.4052 265.667 35.7458 263.721C35.5563 263.213 35.3648 262.707 35.1706 262.202C34.3119 259.909 33.5707 257.644 33.0307 255.253C32.5249 253.177 31.7337 251.526 30.5918 249.731C30.2466 249.187 29.9015 248.642 29.5564 248.097C29.325 247.745 29.325 247.745 29.089 247.386C28.751 246.786 28.751 246.786 28.751 246.05C28.5081 246.05 28.2651 246.05 28.0147 246.05C26.0269 241.7 25.1445 237.213 24.3029 232.54C24.2359 232.169 24.2359 232.169 24.1675 231.791C24.045 231.109 23.9257 230.426 23.8065 229.743C23.6991 228.782 23.6991 228.782 23.2289 228.379C23.1531 227.778 23.1006 227.174 23.0577 226.57C23.0295 226.184 23.0012 225.798 22.9721 225.4C22.9429 224.979 22.9138 224.558 22.8837 224.123C22.8368 223.475 22.8368 223.475 22.7889 222.814C22.6885 221.425 22.5905 220.035 22.4926 218.646C22.3943 217.268 22.2955 215.89 22.1962 214.513C22.1345 213.654 22.0734 212.796 22.0131 211.937C21.9313 210.791 21.8455 209.645 21.7563 208.499C21.7292 208.145 21.702 207.792 21.6741 207.428C21.6316 206.936 21.6316 206.936 21.5883 206.434C21.5642 206.148 21.5402 205.862 21.5154 205.567C21.3181 204.405 20.7739 203.687 20.0306 202.793C19.031 201.53 18.1341 200.305 17.3386 198.904C16.5852 197.609 15.7636 196.468 14.8076 195.315C10.3438 189.894 10.3438 189.894 10.3438 187.883C10.1008 187.883 9.85785 187.883 9.60751 187.883C9.52589 187.685 9.44426 187.488 9.36016 187.285C8.64505 185.709 7.95369 184.342 6.72563 183.111C2.43589 178.615 2.26488 173.022 1.71791 167.095C1.59143 165.687 1.59143 165.687 1.31122 164.304C-2.4634 148.444 2.89303 127.824 5.07528 111.906C5.50202 108.793 5.91253 105.677 6.30549 102.559C6.6734 99.6828 7.18932 96.8483 7.76679 94.0058C7.86339 93.5198 7.95973 93.0338 8.05584 92.5476C8.32499 91.1924 8.59785 89.838 8.87122 88.4837C8.99401 87.8624 9.11674 87.2412 9.23937 86.6199C9.29869 86.3309 9.35801 86.0419 9.41912 85.7442C9.55741 85.0527 9.68536 84.3592 9.8074 83.6647C10.9497 77.6207 13.3296 70.1905 18.0748 66.0268C21.1019 64.1929 24.5469 64.2825 27.9687 64.1861C32.0446 64.0708 35.6946 63.8436 39.4272 61.9773C40.2861 61.9624 41.1454 61.9613 42.0042 61.9773C42.0042 59.1036 41.0417 57.5398 39.3582 55.2399C38.7544 54.3407 38.5655 53.7928 38.3228 52.7736C37.406 52.2963 37.406 52.2963 36.4821 52.0373C36.4821 51.7944 36.4821 51.5514 36.4821 51.3011C35.9961 51.3011 35.5102 51.3011 35.0095 51.3011C34.2578 50.0578 34.1866 49.1123 34.2013 47.6714C34.2037 47.2609 34.206 46.8504 34.2085 46.4275C34.2177 45.7875 34.2177 45.7875 34.2272 45.1346C34.2305 44.7023 34.2338 44.27 34.2373 43.8246C34.2459 42.7579 34.258 41.6914 34.2732 40.6249C34.6377 40.6249 35.0021 40.6249 35.3776 40.6249C35.2756 40.4251 35.1736 40.2253 35.0685 40.0194C34.9351 39.7561 34.8018 39.4927 34.6644 39.2213C34.532 38.9608 34.3996 38.7002 34.2631 38.4318C32.5465 34.8261 32.8185 28.7947 34.0906 25.0823C35.6372 21.3835 37.8777 18.3295 41.6102 16.6681C42.453 16.2913 43.247 15.8586 44.052 15.4069C44.3263 15.2532 44.6006 15.0994 44.8833 14.941C45.635 14.5153 46.3855 14.0876 47.1353 13.6583C49.6834 12.2022 52.9876 12.2374 55.86 12.8544Z" fill="#103255"/>
<path d="M452.855 22.6144C454.014 23.1508 455.202 23.5882 456.397 24.036C456.781 24.1836 457.166 24.3312 457.562 24.4832C457.83 24.5862 458.099 24.6892 458.376 24.7953C458.376 25.0382 458.376 25.2812 458.376 25.5316C458.604 25.6303 458.831 25.729 459.066 25.8307C459.848 26.2679 459.848 26.2679 460.585 27.3723C460.22 27.3723 459.856 27.3723 459.48 27.3723C459.714 27.8022 459.714 27.8022 459.953 28.2409C461.329 30.8656 462.477 33.5027 463.461 36.2998C463.567 36.5996 463.674 36.8994 463.784 37.2083C464.904 40.4781 465.51 43.6317 465.486 47.091C465.483 47.4092 465.481 47.7274 465.479 48.0552C465.374 53.7181 463.866 58.8549 462.057 64.1868C461.571 64.0653 461.085 63.9438 460.585 63.8186C460.643 64.7216 460.759 65.5153 460.953 66.3956C461.015 66.6842 461.077 66.9727 461.141 67.27C461.92 69.5248 463.185 70.4318 465.244 71.4614C467.689 72.5986 470.122 73.5376 472.719 74.2698C473.47 74.4948 473.47 74.4948 474.206 74.863C474.206 75.1059 474.206 75.3489 474.206 75.5992C474.457 75.679 474.709 75.7587 474.968 75.8408C476.368 76.4831 477.417 77.3581 478.578 78.3603C478.806 78.5569 479.034 78.7534 479.269 78.956C481.109 80.5853 482.528 82.3125 483.778 84.4347C483.936 84.6905 484.094 84.9463 484.257 85.2098C485.25 86.866 485.25 86.866 485.25 87.748C485.493 87.748 485.736 87.748 485.987 87.748C489.901 95.0751 489.901 95.0751 491.509 98.7924C491.974 99.8673 492.442 100.941 492.912 102.014C493.037 102.297 493.161 102.581 493.289 102.873C494.331 105.216 495.518 107.45 496.786 109.679C497.471 111.089 497.804 112.358 498.135 113.886C498.378 113.886 498.621 113.886 498.872 113.886C501.69 118.943 503.659 124.012 505.244 129.572C505.715 131.204 506.206 132.83 506.695 134.456C506.79 134.774 506.885 135.091 506.983 135.419C507.335 136.591 507.688 137.759 508.075 138.92C508.173 140.591 508.161 142.263 508.167 143.936C508.179 144.624 508.179 144.624 508.19 145.327C508.2 147.636 508.102 149.549 507.258 151.7C506.656 153.465 506.507 155.349 506.258 157.189C505.884 159.797 505.508 162.33 504.739 164.851C503.979 167.422 503.736 169.989 503.473 172.651C502.88 178.592 501.383 183.181 498.204 188.229C498.044 188.484 497.884 188.74 497.718 189.003C493.763 195.231 493.763 195.231 491.509 195.983C490.811 196.008 490.113 196.014 489.415 196.006C489.049 196.002 488.683 195.999 488.306 195.996C487.887 195.989 487.887 195.989 487.459 195.983C487.353 196.257 487.247 196.531 487.137 196.814C486.173 199.163 485.347 200.571 483.018 201.689C481.605 202.637 481.08 203.44 480.729 205.063C480.611 205.773 480.502 206.484 480.401 207.197C480.312 207.777 480.312 207.777 480.221 208.37C479.522 213.19 479.226 218.045 478.923 222.903C478.833 224.292 478.741 225.68 478.649 227.068C478.592 227.922 478.537 228.776 478.484 229.63C478.459 230.014 478.435 230.398 478.409 230.794C478.378 231.296 478.378 231.296 478.346 231.808C478.256 232.797 478.256 232.797 478.074 233.857C477.389 238.069 477.449 242.464 477.419 246.72C477.416 247.118 477.416 247.118 477.413 247.524C477.403 248.931 477.396 250.337 477.39 251.744C477.385 252.878 477.375 254.012 477.36 255.147C477.254 263.288 477.948 270.797 479.581 278.791C480.165 281.89 480.204 284.952 480.194 288.094C480.195 288.658 480.195 289.222 480.196 289.787C480.197 290.961 480.196 292.136 480.192 293.31C480.188 294.809 480.19 296.307 480.195 297.806C480.198 298.968 480.197 300.13 480.195 301.292C480.194 301.845 480.195 302.397 480.197 302.95C480.203 305.688 480.149 308.204 479.36 310.844C479.249 311.674 479.157 312.508 479.085 313.343C479.043 313.812 479 314.281 478.957 314.764C478.915 315.247 478.874 315.73 478.831 316.228C478.573 319.207 478.279 322.161 477.842 325.12C477.158 329.786 476.893 334.412 476.737 339.122C476.697 340.241 476.656 341.361 476.613 342.48C476.587 343.167 476.563 343.854 476.54 344.54C476.476 346.34 476.345 348.109 476.116 349.895C475.662 354.546 477.93 360.976 480.833 364.593C482.517 366.356 484.365 367.95 486.284 369.451C487.091 370.115 487.091 370.115 487.459 370.851C487.616 372.552 487.666 374.059 486.976 375.637C486.256 376.49 485.658 377.06 484.519 377.199C484.107 377.197 484.107 377.197 483.687 377.195C483.228 377.194 483.228 377.194 482.759 377.193C482.435 377.189 482.11 377.184 481.776 377.179C481.279 377.174 481.279 377.174 480.771 377.169C472.243 377.055 472.243 377.055 469.604 374.878C469.052 374.165 469.052 374.165 469.052 373.428C468.809 373.428 468.566 373.428 468.316 373.428C468.283 373.202 468.251 372.977 468.217 372.744C468.018 371.921 468.018 371.921 467.349 371.502C467.095 371.378 466.842 371.254 466.581 371.126C466.167 370.916 466.167 370.916 465.744 370.702C465.309 370.491 465.309 370.491 464.864 370.276C464.293 369.994 463.722 369.71 463.153 369.423C462.772 369.238 462.772 369.238 462.383 369.049C461.645 368.617 461.132 368.194 460.585 367.538C460.115 364.516 460.695 361.427 462.057 358.703C462.093 357.922 462.105 357.141 462.106 356.36C462.107 355.653 462.107 355.653 462.108 354.933C462.107 354.686 462.106 354.44 462.105 354.187C462.103 353.44 462.105 352.694 462.108 351.947C462.107 351.475 462.107 351.002 462.106 350.516C462.105 349.866 462.105 349.866 462.105 349.204C462.09 348.066 462.09 348.066 461.874 347.125C461.629 345.881 461.632 344.654 461.624 343.391C461.617 342.836 461.609 342.28 461.601 341.724C461.597 341.434 461.593 341.145 461.589 340.847C461.506 335.747 461.146 330.941 460.071 325.947C459.649 323.836 459.33 321.707 459.002 319.579C458.887 318.835 458.77 318.091 458.652 317.346C458.23 314.631 457.859 311.915 457.528 309.188C457.258 306.996 456.871 304.846 456.454 302.677C455.539 297.337 455.304 292.056 455.235 286.65C455.152 280.744 454.613 275.555 452.071 270.141C450.384 266.368 450.384 262.124 450.092 258.061C449.975 251.88 449.975 251.88 448.436 246.05C448.378 245.514 448.334 244.977 448.298 244.44C448.099 242.21 447.543 240.107 446.963 237.951C445.991 242.768 446.168 247.582 446.227 252.47C446.247 254.118 446.261 255.767 446.273 257.415C446.279 257.788 446.285 258.162 446.291 258.546C446.305 260.563 446.138 262.181 445.491 264.089C445.364 264.67 445.245 265.252 445.137 265.837C444.884 267.148 444.598 268.443 444.28 269.74C442.983 275.182 442.701 280.235 442.914 285.81C442.935 286.576 442.956 287.342 442.977 288.108C443.106 292.298 443.425 296.436 443.903 300.599C444.145 302.785 444.357 304.974 444.57 307.162C444.594 307.406 444.618 307.65 444.643 307.902C444.978 311.357 445.267 314.813 445.514 318.276C445.726 321.246 445.948 324.215 446.227 327.18C446.266 327.627 446.266 327.627 446.306 328.082C446.454 329.584 446.723 330.82 447.331 332.196C447.51 332.892 447.679 333.59 447.838 334.29C448.198 335.791 448.634 337.174 449.241 338.593C449.807 339.957 450.193 341.01 449.908 342.504C449.521 342.834 449.521 342.834 449.126 343.171C448.898 343.437 448.671 343.703 448.436 343.977C448.49 344.692 448.49 344.692 448.718 345.478C448.791 345.774 448.865 346.07 448.941 346.375C449.017 346.677 449.094 346.979 449.172 347.29C449.289 347.837 449.403 348.385 449.514 348.934C449.572 349.205 449.629 349.477 449.688 349.757C449.804 350.304 449.917 350.851 450.028 351.399C450.353 352.917 450.778 354.251 451.421 355.665C452.347 357.9 452.31 360.018 452.255 362.407C452.25 362.842 452.244 363.278 452.238 363.727C452.049 373.489 452.049 373.489 449.908 375.637C447.286 377.669 443.328 376.892 440.206 376.53C439.543 376.443 438.881 376.352 438.22 376.258C437.904 376.215 437.589 376.172 437.263 376.127C434.346 375.672 434.346 375.672 433.342 374.533C432.691 372.368 433.524 370.051 434.17 367.975C436.261 361.247 436.922 354.69 437.023 347.658C436.594 347.495 436.594 347.495 436.156 347.329C435.006 346.848 434.448 346.457 433.71 345.449C433.566 344.178 433.566 344.178 433.618 342.78C433.631 342.315 433.645 341.85 433.658 341.371C433.675 341.016 433.692 340.661 433.71 340.295C433.467 340.295 433.224 340.295 432.974 340.295C432.276 337.96 431.739 335.63 431.317 333.232C431.008 331.502 430.677 329.863 429.985 328.243C429.398 326.738 428.968 325.176 428.515 323.626C428.074 322.163 427.509 320.976 426.715 319.679C426.443 318.792 426.443 318.792 426.232 317.815C425.902 316.388 425.535 314.989 425.089 313.595C423.779 309.492 422.912 305.499 422.406 301.22C422.304 300.454 422.304 300.454 421.929 299.431C421.915 298.572 421.913 297.713 421.929 296.854C421.686 296.854 421.443 296.854 421.193 296.854C421.144 296.544 421.095 296.233 421.045 295.914C420.947 295.309 420.947 295.309 420.848 294.691C420.784 294.29 420.72 293.888 420.654 293.475C420.51 292.459 420.51 292.459 420.089 291.7C419.832 289.819 419.684 287.923 419.524 286.031C419.498 285.736 419.473 285.44 419.448 285.135C419.002 279.695 418.874 274.271 418.848 268.815C418.846 268.418 418.844 268.022 418.841 267.613C418.827 264.346 418.823 261.078 418.823 257.81C418.824 255.339 418.819 252.869 418.806 250.398C418.802 249.254 418.806 248.109 418.811 246.965C418.807 246.273 418.804 245.58 418.8 244.887C418.803 244.572 418.807 244.257 418.81 243.932C418.814 242.248 418.814 242.248 417.913 240.897C417.155 240.534 416.414 240.197 415.625 239.907C413.745 239.176 411.886 238.405 410.034 237.606C409.748 237.487 409.462 237.368 409.167 237.245C406.982 236.293 405.599 235.176 404.258 233.165C404.103 232.286 403.968 231.403 403.844 230.519C403.54 228.558 403.124 227.091 402.043 225.391C399.686 221.646 399.896 217.595 399.951 213.311C399.974 210.752 399.989 208.587 398.742 206.275C398.108 205.053 397.87 203.741 397.586 202.402C397.47 201.88 397.354 201.358 397.238 200.836C397.182 200.577 397.126 200.319 397.069 200.052C396.907 199.345 396.709 198.646 396.509 197.948C395.954 195.757 395.906 193.49 395.768 191.243C395.712 190.346 395.654 189.45 395.594 188.554C395.57 188.16 395.546 187.766 395.521 187.36C395.48 186.417 395.48 186.417 395.055 185.675C394.919 184.531 394.807 183.393 394.71 182.246C394.679 181.881 394.648 181.516 394.616 181.14C394.022 173.811 393.535 166.43 393.49 159.076C393.487 158.795 393.483 158.514 393.48 158.224C393.49 156.395 393.685 154.625 393.922 152.812C394.532 148.021 394.655 143.188 394.871 138.368C395.736 119.27 395.736 119.27 397.31 110.872C397.365 110.571 397.42 110.269 397.477 109.959C398.487 104.445 399.811 99.0677 401.365 93.6809C401.653 92.6369 401.903 91.5943 402.134 90.5364C403.244 85.5956 405.64 82.6034 409.871 79.7524C411.493 78.5674 412.31 77.3027 413.186 75.5072C414.347 73.2827 415.651 71.7306 417.512 70.0771C419.282 68.3867 419.751 66.9726 420.089 64.5549C419.481 64.5549 418.874 64.5549 418.248 64.5549C418.041 63.8416 418.041 63.8416 417.88 63.0823C418.001 62.9608 418.123 62.8393 418.248 62.7142C418.41 60.9317 418.293 59.7106 417.581 58.0664C416.028 54.4646 414.638 49.4885 415.977 45.6343C416.23 45.0942 416.493 44.5589 416.767 44.0294C417.419 42.5973 417.635 41.067 417.88 39.5211C417.394 39.5211 416.908 39.5211 416.407 39.5211C417.35 34.2724 420.004 29.161 424.433 26.0306C425.422 25.4209 426.422 24.8778 427.48 24.3984C428.222 24.0617 428.222 24.0617 428.986 23.5384C430.387 22.754 431.84 22.2938 433.365 21.8041C433.66 21.7068 433.956 21.6095 434.26 21.5093C440.593 19.4386 446.839 19.7518 452.855 22.6144Z" fill="#103255"/>
<path d="M538.631 173.525C538.752 173.525 538.874 173.525 538.999 173.525C538.974 175.661 538.941 177.797 538.902 179.933C538.89 180.66 538.88 181.387 538.871 182.114C538.859 183.158 538.84 184.202 538.819 185.245C538.816 185.735 538.816 185.735 538.812 186.234C538.805 186.536 538.797 186.838 538.79 187.15C538.784 187.549 538.784 187.549 538.777 187.957C538.631 188.619 538.631 188.619 537.526 189.355C536.399 189.332 536.399 189.332 535.317 188.987C534.202 187.415 534.396 185.306 534.581 183.465C535.22 179.722 536.196 176.541 538.631 173.525Z" fill="white"/>
</svg>
